<svg width="40" height="40" viewBox="0 0 40 40" fill="none" xmlns="http://www.w3.org/2000/svg">
<rect width="40" height="40" rx="6" fill="#333333"/>
<path d="M13.68 27L8.06 13.06H11.52L15.36 23.14H14.34L18.1 13.06H21.58L15.98 27H13.68Z" fill="#CA4141"/>
<path d="M24.26 27.36C22.98 27.36 21.84 27.0533 20.84 26.44C19.8533 25.8267 19.0733 24.9733 18.5 23.88C17.9267 22.7733 17.64 21.4867 17.64 20.02C17.64 18.5533 17.9267 17.2733 18.5 16.18C19.0733 15.0867 19.8733 14.2333 20.9 13.62C21.9267 13.0067 23.1133 12.7 24.46 12.7C25.9933 12.7 27.3133 13.0867 28.42 13.86C29.5267 14.62 30.32 15.6733 30.8 17.02L27.84 18.08C27.5733 17.3333 27.1467 16.7533 26.56 16.34C25.9867 15.9133 25.2867 15.7 24.46 15.7C23.7133 15.7 23.06 15.8733 22.5 16.22C21.9533 16.5667 21.5267 17.06 21.22 17.7C20.9267 18.34 20.78 19.1133 20.78 20.02C20.78 20.9267 20.9267 21.7067 21.22 22.36C21.5267 23 21.9533 23.4933 22.5 23.84C23.06 24.1867 23.7133 24.36 24.46 24.36C24.86 24.36 25.2667 24.3067 25.68 24.2C26.0933 24.08 26.4733 23.8867 26.82 23.62C27.18 23.34 27.4667 22.9467 27.68 22.44C27.9067 21.9333 28.02 21.2933 28.02 20.52V19.86L28.72 22.06H24.66V19.26H30.8V27H28.04L27.6 25.04L28.14 25.48C27.8867 25.8667 27.5667 26.2067 27.18 26.5C26.8067 26.78 26.3733 26.9933 25.88 27.14C25.4 27.2867 24.86 27.36 24.26 27.36Z" fill="#CA4141"/>
</svg>
